Coordinates
version=1
nRows=7
nColumns=40
inDegrees=yes

Units are S.I. units (second, meters, Newtons, ...)
Angles are in degrees.

endheader
time	pelvis_tilt	pelvis_list	pelvis_rotation	pelvis_tx	pelvis_ty	pelvis_tz	hip_flexion_r	hip_adduction_r	hip_rotation_r	knee_angle_r	knee_angle_r_beta	ankle_angle_r	subtalar_angle_r	mtp_angle_r	hip_flexion_l	hip_adduction_l	hip_rotation_l	knee_angle_l	knee_angle_l_beta	ankle_angle_l	subtalar_angle_l	mtp_angle_l	lumbar_extension	lumbar_bending	lumbar_rotation	arm_flex_r	arm_add_r	arm_rot_r	elbow_flex_r	pro_sup_r	wrist_flex_r	wrist_dev_r	arm_flex_l	arm_add_l	arm_rot_l	elbow_flex_l	pro_sup_l	wrist_flex_l	wrist_dev_l
     17.76000000	     -3.58989543	     -2.74505760	     -0.88358822	      1.04298754	      0.93303988	      0.43343744	     35.20304697	     -8.82271233	     -6.19836214	     74.09742400	     74.09742400	      0.22556777	    -18.22330972	      5.46115420	     13.96027087	     -3.86480312	    -10.94892750	     19.72722975	     19.72722975	     11.35840615	     -8.38637560	     -4.78028170	    -12.38157272	      3.72640326	      0.10337138	      5.77613086	    -14.49593067	     -3.36555958	     95.08536099	     43.70513435	      0.00000000	      0.00000000	      6.69578547	    -10.63529251	     -1.49567750	     40.85227168	     43.68832478	      0.00000000	      0.00000000
     17.77150000	     -3.56999501	     -2.96015813	     -1.07634438	      1.04198441	      0.93342297	      0.43335445	     36.19901006	     -8.49058345	     -5.98547280	     72.37109970	     72.37109970	      0.17828000	    -17.92391008	      5.11960861	     13.14275619	     -4.02400108	    -10.95618338	     19.27071832	     19.27071832	     11.62546914	     -8.50830376	     -4.92492315	    -12.55357904	      3.95303912	      0.63300757	      3.64504522	    -14.95212683	     -3.58532885	     91.50198997	     43.84574431	      0.00000000	      0.00000000	      8.58656043	    -10.93075114	     -1.61225283	     42.41913576	     43.78434684	      0.00000000	      0.00000000
     17.78300000	     -3.50183230	     -3.16328179	     -1.18841890	      1.04113493	      0.93384284	      0.43318790	     36.93424933	     -8.18227695	     -5.81923785	     70.38066109	     70.38066109	      0.08069319	    -17.53714015	      4.87184985	     12.29039248	     -4.16481510	    -10.94809267	     18.83108488	     18.83108488	     11.90238875	     -8.43926641	     -5.10224648	    -12.76230202	      4.26721858	      0.91321232	      1.64034238	    -15.05794907	     -3.76634354	     87.99439185	     43.97407513	      0.00000000	      0.00000000	     10.21103758	    -11.27727587	     -1.69097316	     43.98703661	     43.85520848	      0.00000000	      0.00000000
     17.79450000	     -3.48060636	     -3.27514415	     -1.35246871	      1.04018094	      0.93411500	      0.43317310	     37.59017405	     -7.96324290	     -5.65428301	     68.11697346	     68.11697346	     -0.31722871	    -17.23458522	      3.73787606	     11.47220877	     -4.22315490	    -11.04484814	     18.33614292	     18.33614292	     11.94663518	     -8.46530126	     -5.65181608	    -12.88114869	      4.33073990	      0.50883170	      1.26244581	    -14.16519652	     -4.92253415	     81.39332173	     44.27331949	      0.00000000	      0.00000000	     11.06223412	    -12.25259190	     -1.41668006	     46.74034898	     43.97909914	      0.00000000	      0.00000000
     17.80600000	     -3.44734845	     -3.44013816	     -1.53509235	      1.03930079	      0.93431619	      0.43324925	     38.05670029	     -7.65100467	     -5.52300080	     65.54319974	     65.54319974	     -0.59292287	    -16.85339593	      3.06047727	     10.64003111	     -4.33375963	    -11.09645345	     17.84531067	     17.84531067	     12.08504073	     -8.51459650	     -6.03549381	    -13.06338432	      4.49819274	      0.44019226	      0.48873428	    -14.08832090	     -5.04050006	     76.07533017	     44.49466815	      0.00000000	      0.00000000	     12.07690240	    -12.96693256	     -1.40258364	     49.42235992	     44.14855409	      0.00000000	      0.00000000
     17.81750000	     -3.44585669	     -3.57975383	     -1.73110198	      1.03845703	      0.93440748	      0.43342956	     38.38873802	     -7.35240087	     -5.44514391	     62.63211860	     62.63211860	     -0.81744598	    -16.43392894	      2.60472031	      9.86221828	     -4.42947436	    -11.18646443	     17.39020067	     17.39020067	     12.23353521	     -8.54470787	     -6.33666465	    -13.22506948	      4.63032794	      0.43827046	     -0.14680297	    -13.99143830	     -5.17798101	     70.56277077	     44.72158122	      0.00000000	      0.00000000	     13.08004636	    -13.60006886	     -1.62043194	     52.02125815	     44.35538693	      0.00000000	      0.00000000
     17.82900000	     -3.47869752	     -3.69873574	     -1.95095403	      1.03768129	      0.93435462	      0.43374003	     38.57948828	     -7.05479543	     -5.42678116	     59.35380125	     59.35380125	     -1.01184155	    -15.92582260	      2.11202103	      9.11377322	     -4.51255282	    -11.32238166	     16.93395737	     16.93395737	     12.39191324	     -8.54969594	     -6.57773459	    -13.34585621	      4.74680239	      0.47657155	     -0.65833447	    -13.88663254	     -5.38999215	     64.84266449	     44.95290604	      0.00000000	      0.00000000	     14.04285460	    -14.13149213	     -1.96321286	     54.68474917	     44.57708787	      0.00000000	      0.00000000
